<svg width="162" height="162" xmlns="http://www.w3.org/2000/svg">
 <!-- Created with Method Draw - http://github.com/duopixel/Method-Draw/ -->

 <g>
  <title>background</title>
  <rect x="1" y="1" width="160" height="160" id="canvas_background" fill="#D0D0D0" stroke="#D0D0D0"/>
 </g>
 <g>
  <title>Layer1</title>

  <!-- wartosc -->
  <path d="M25,140 A58,58 0 0 1 22,121" stroke-width="20" stroke="#00695c" fill="none" id="wartosc_bzw"/>
  <path d="M22,121 A58,58 0 0 1 %POS_VAL%" stroke-width="20" stroke="#00695c" fill="none" id="wartosc"/>
  <path d="M%POS_VAL% A58,58 0 0 1 135,140" stroke-width="20" stroke="#9ED2C1" fill="none" id="baza"/>

  <!-- skala -->
  <path d="M14, 144 A70,70 0 0 1 %POS_ALERT_LO%"  stroke-width="2" stroke="#0050B4" fill="none" id="zimno"/>
  <path d="M%POS_ALERT_LO% A70,70 0 0 1 %POS_ALERT_HI%" stroke-width="2" stroke="#006428" fill="none" id="baza2"/>
  <path d="M%POS_ALERT_HI% A70,70 0 0 1 146,144" stroke-width="2" stroke="#B40014" fill="none" id="cieplo"/>

  <!-- etykiety -->
  <path d="M10,144 A72,72 0 0 1 8,121"   fill="transparent" id="min_%ID%"/>
  <path d="M%POS_VAL_ALERT_LO% A72,72 0 0 1 152,121" fill="transparent" id="min_alert_%ID%"/>
  <path d="M%POS_VAL_ALERT_HI% A72,72 0 0 1 152,121" fill="transparent" id="max_alert_%ID%"/>
  <path d="M152,128 A72,72 0 0 1 10,138"  fill="transparent" id="max_%ID%"/>

  <!-- stroke-width="2" stroke="#000000" fill="none"  -->
  <!-- fill="transparent" -->

  <text font-size="12" text-anchor="start"> 
  <textPath xmlns:xlink="http://www.w3.org/1999/xlink" xlink:href="#min_%ID%">%VAL_MIN%
  </textPath>
  </text>

  <text font-size="12"  text-anchor="start"> 
  <textPath xmlns:xlink="http://www.w3.org/1999/xlink" xlink:href="#min_alert_%ID%">%VAL_ALERT_LO%
  </textPath>
  </text>

  <text font-size="12"  text-anchor="start"> 
  <textPath xmlns:xlink="http://www.w3.org/1999/xlink" xlink:href="#max_alert_%ID%">%VAL_ALERT_HI%
  </textPath>
  </text>

  <text font-size="12"  text-anchor="start"> 
  <textPath xmlns:xlink="http://www.w3.org/1999/xlink" xlink:href="#max_%ID%">%VAL_MAX%
  </textPath>
  </text>


  <text 
     x="80" y="130" 
     id="temp" 
     class="widget_value_text"
     xml:space="preserve" 
   >%VALUE%%UNIT%</text>

  <text 
     fill="#808080" 
     x="80" y="30" 
     id="label" 
     font-size="12" 
     font-family="Arial, Helvetica, sans-serif"
     text-anchor="middle" 
     xml:space="preserve" 
   >%NAME%</text>

 </g>
</svg>

